<?xml version="1.0" encoding="iso-8859-1"?>
<!-- Uploaded to: SVG Repo, www.svgrepo.com, Generator: SVG Repo Mixer Tools -->
<svg fill="#000000" version="1.1" id="Layer_1" xmlns="http://www.w3.org/2000/svg" xmlns:xlink="http://www.w3.org/1999/xlink" 
	 viewBox="0 0 512 512" xml:space="preserve">
<g>
	<g>
		<polygon points="0,342.716 0,508.102 15.592,508.102 15.592,358.308 181.228,358.308 181.228,508.102 196.82,508.102 
			196.82,342.716 		"/>
	</g>
</g>
<g>
	<g>
		<path d="M63.036,200.885v125.906h70.749V200.885H63.036z M118.193,311.198H78.629v-94.721h39.564V311.198z"/>
	</g>
</g>
<g>
	<g>
		<rect x="38.482" y="397.888" width="15.592" height="110.187"/>
	</g>
</g>
<g>
	<g>
		<rect x="140.363" y="397.888" width="15.592" height="110.187"/>
	</g>
</g>
<g>
	<g>
		<polygon points="315.179,342.716 315.179,508.102 330.771,508.102 330.771,358.308 496.408,358.308 496.408,508.102 512,508.102 
			512,342.716 		"/>
	</g>
</g>
<g>
	<g>
		<path d="M378.216,200.885v125.906h70.749V200.885H378.216z M433.372,311.198h-39.564v-94.721h39.564V311.198z"/>
	</g>
</g>
<g>
	<g>
		<rect x="353.45" y="397.888" width="15.592" height="110.187"/>
	</g>
</g>
<g>
	<g>
		<rect x="455.32" y="397.888" width="15.592" height="110.187"/>
	</g>
</g>
<g>
	<g>
		<path d="M0,3.898v157.422h94.555l-0.002,28.457l56.911-28.457h201.189l56.912,28.456l0.002-28.456h94.553V3.898H0z
			 M488.528,145.728h-94.551l-0.002,18.82l-37.641-18.82H147.783l-37.636,18.819v-18.819H15.592v0V19.491h472.936V145.728z"/>
	</g>
</g>
<g>
	<g>
		<rect x="212.089" y="76.694" width="16.632" height="15.592"/>
	</g>
</g>
<g>
	<g>
		<rect x="244.313" y="76.694" width="15.592" height="15.592"/>
	</g>
</g>
<g>
	<g>
		<rect x="275.487" y="76.694" width="15.592" height="15.592"/>
	</g>
</g>
</svg>